<?xml version="1.0" encoding="UTF-8"?>
<svg width="64px" height="38px" viewBox="0 0 64 38" version="1.1" xmlns="http://www.w3.org/2000/svg" xmlns:xlink="http://www.w3.org/1999/xlink">
    <!-- Generator: Sketch 46.2 (44496) - http://www.bohemiancoding.com/sketch -->
    <title>Case Management Copy</title>
    <desc>Created with Sketch.</desc>
    <defs></defs>
    <g id="Page-1" stroke="none" stroke-width="1" fill="none" fill-rule="evenodd">
        <g id="Artboard" transform="translate(-5.000000, -6.000000)" fill="#2BBBCF">
            <g id="Case-Management-Copy" transform="translate(5.000000, 6.000000)">
                <path d="M37.2079509,38 C37.2079509,38 35.3041037,38 33.2248904,38 C30.0291574,37.9999013 27.1334054,36.1113569 25.8366019,33.181153 C24.8223707,30.8895416 23.6440844,28.2272267 22.7722705,26.2573782 C21.96301,24.4289238 21.9559285,22.3436314 22.7528947,20.5096516 C23.8631197,17.9543937 25.5549147,14.0608742 27.1673377,10.350289 C29.8987394,4.06421861 36.0841529,0 42.9195909,0 C52.2530355,0 64,0 64,0 C64,0 62.1283147,5.21589522 60.1609304,10.6982982 C57.4755587,18.1815321 50.3996441,23.1706835 42.4716846,23.1706835 C36.5211417,23.1706835 30.227735,23.1706835 27.5073492,23.1706835 C26.7419546,23.1706835 26.1215348,23.7931927 26.1215348,24.5609444 C26.1215348,25.3287945 26.7419546,25.9512051 27.5073492,25.9512051 C27.7541204,25.9512051 28.0206611,25.9512051 28.295365,25.9512051 C30.3493995,25.9512051 32.2159704,27.1493552 33.0766702,29.0202378 C34.718993,32.5900208 37.2079509,38 37.2079509,38 Z M13.7666901,31.0305677 C13.7666901,31.0305677 14.7448943,31.0305677 15.8132819,31.0305677 C17.4553311,31.0305677 18.9432591,30.0573701 19.6096695,28.5475441 C20.1307403,27.3666835 20.7362717,25.9948362 21.1842289,24.9798479 C21.60002,24.0376213 21.6036707,22.9630738 21.1941945,22.0180677 C20.6236904,20.701412 19.7543182,18.6951599 18.9258935,16.7831107 C17.5223273,13.5439828 14.3441009,11.4497817 10.8317814,11.4497817 C6.03597587,11.4497817 0,11.4497817 0,11.4497817 C0,11.4497817 0.961726498,14.1373911 1.97268882,16.9624831 C3.35247577,20.8184459 6.98832881,23.3893193 11.0619761,23.3893193 C14.1195303,23.3893193 17.3533073,23.3893193 18.7511506,23.3893193 C19.1444452,23.3893193 19.4632447,23.7100456 19.4632447,24.1056181 C19.4632447,24.5012897 19.1444452,24.822016 18.7511506,24.822016 C18.624361,24.822016 18.4874085,24.822016 18.3462132,24.822016 C17.2908499,24.822016 16.3316887,25.4394466 15.8894544,26.4035118 C15.0455386,28.2428988 13.7666901,31.0305677 13.7666901,31.0305677 Z" id="Shape"></path>
            </g>
        </g>
    </g>
</svg>