<?xml version="1.0" encoding="UTF-8"?>
<svg width="18px" height="22px" viewBox="0 0 18 22" version="1.1" xmlns="http://www.w3.org/2000/svg">
  <path
    d="M10.4092683,10.5673171 C10.4715973,10.5040209 10.5295366,10.4365472 10.5826829,10.3653659 L14.1387805,9.97243902 C14.5431072,9.92976009 14.85,9.5887681 14.85,9.18219512 C14.85,8.77562214 14.5431072,8.43463015 14.1387805,8.39195122 L10.5804878,7.99902439 C10.0867059,7.350592 9.24257541,7.07633813 8.4619689,7.31072795 C7.68136238,7.54511777 7.12793396,8.23901147 7.07302658,9.05219675 C7.0181192,9.86538203 7.47324418,10.6273746 8.21525623,10.9645737 C8.95726828,11.3017729 9.83060461,11.1434847 10.4070732,10.5673171 L10.4092683,10.5673171 Z"
    id="Shape"></path>
  <path
    d="M15.3439024,15.5260976 C18.8461528,12.0232127 18.8458098,6.34448154 15.3431365,2.84201971 C11.8404632,-0.660442123 6.16173196,-0.660442123 2.65905862,2.84201971 C-0.843614714,6.34448154 -0.843957629,12.0232127 2.65829268,15.5260976 C2.98369217,15.8498068 3.50947856,15.8498068 3.83487805,15.5260976 L4.54829268,14.8126829 L5.26829268,14.1036585 C5.59319775,13.7787535 5.59319775,13.2519783 5.26829267,12.9270732 C4.9433876,12.6021681 4.4166124,12.6021681 4.09170732,12.9270732 L3.3804878,13.6382927 C2.55432073,12.5939218 2.03654497,11.339399 1.88560976,10.0163415 L2.91731707,10.0163415 C3.36991866,10.0067858 3.73180818,9.63709269 3.73170732,9.18439024 C3.73463528,8.9629846 3.64918108,8.74954592 3.49426666,8.59133544 C3.33935223,8.43312497 3.12775969,8.34319676 2.90634146,8.34146341 L1.87463415,8.34146341 C2.02636267,7.01994 2.5440965,5.76703934 3.3695122,4.72390244 L4.08073171,5.43512195 C4.28973208,5.64725929 4.59603031,5.73178191 4.88424682,5.65685095 C5.17246333,5.58191999 5.39881117,5.35891924 5.47802731,5.07185094 C5.55724345,4.78478264 5.47729306,4.47725929 5.26829268,4.26512195 L4.55707317,3.55390244 C5.59835861,2.72961201 6.84882681,2.21194098 8.16804878,2.05902439 L8.16804878,3.06 C8.16804878,3.28064718 8.25570053,3.49225723 8.41172165,3.64827835 C8.56774277,3.80429947 8.77935282,3.89195122 9,3.89195122 C9.45947397,3.89195122 9.83195122,3.51947397 9.83195122,3.06 L9.83195122,2.05902439 C11.1544668,2.21099439 12.4081994,2.72951815 13.4517073,3.55609756 L12.7317073,4.26512195 C12.4068022,4.59002703 12.4068022,5.11680224 12.7317073,5.44170732 C13.0566124,5.76661239 13.5833876,5.76661239 13.9082927,5.44170732 L14.6195122,4.7304878 C16.6787599,7.3419039 16.6787599,11.0246815 14.6195122,13.6360976 L13.9082927,12.924878 C13.6977238,12.7147013 13.3910222,12.6328272 13.1037194,12.7100968 C12.8164166,12.7873664 12.5921607,13.0120407 12.5154267,13.299487 C12.4386928,13.5869333 12.5211385,13.8934818 12.7317073,14.1036585 L13.4429268,14.814878 L14.1563415,15.5282927 C14.3133776,15.6868667 14.5274085,15.7759006 14.7505809,15.7754881 C14.9737533,15.7750756 15.1874536,15.6852511 15.3439024,15.5260976 Z"
    id="Shape"></path>
  <path
    d="M9,21.7317073 C16.2439024,17.7804878 10.962439,13.3287805 9,16.3229268 C7.03756098,13.3287805 1.75609756,17.7804878 9,21.7317073 Z"
    id="Shape"></path>
</svg>
