<svg width="18px" height="18px" viewBox="0 0 18 18" version="1.1" xmlns="http://www.w3.org/2000/svg">
  <path
    d="M9,0.000922652096 C11.7426036,-0.047527085 14.1923077,1.81778779 14.7248521,4.26449952 L18,4.26449952 L18,18 L0,18 L0,4.26449952 L3.30177515,4.26449952 C3.80769231,1.81778779 6.25739645,-0.047527085 9,0.000922652096 Z M11.2366864,17.0310053 L11.2366864,13.0823517 C11.2366864,10.4176161 6.76331361,10.4176161 6.76331361,13.0823517 L6.76331361,17.0310053 L11.2366864,17.0310053 Z M9.29289941,6.80811072 L9.29289941,3.82845189 L10.5443787,3.82845189 L10.5443787,3.31972965 L9.29289941,3.31972965 L9.29289941,2.30228517 L8.70710059,2.30228517 L8.70710059,3.31972965 L7.4556213,3.31972965 L7.4556213,3.82845189 L8.70710059,3.82845189 L8.70710059,6.80811072 L9.29289941,6.80811072 Z M1.73076923,10.8778886 L1.73076923,13.9786718 L4.65976331,13.9786718 L4.65976331,10.8778886 C4.65976331,8.79454994 1.73076923,8.79454994 1.73076923,10.8778886 Z M16.2692308,10.8778886 L16.2692308,13.9786718 L13.3402367,13.9786718 L13.3402367,10.8778886 C13.3402367,8.79454994 16.2692308,8.79454994 16.2692308,10.8778886 Z"
    id="Shape"></path>
</svg>
