<?xml version="1.0" encoding="UTF-8"?>
<svg width="18px" height="18px" viewBox="0 0 18 17" version="1.1" xmlns="http://www.w3.org/2000/svg">
  <path
    d="M12.7862791,0.223953488 C11.415373,0.228966697 10.0868888,0.699840537 9.01883721,1.55930233 C7.83837209,0.548372093 6.71651163,0.0376744186 5.64697674,0.0376744186 C4.15432839,0.0347182332 2.72472185,0.639203026 1.68697674,1.71209302 C-0.482301805,3.9593452 -0.482301805,7.52088736 1.68697674,9.76813953 L1.70372093,9.78488372 L8.02883721,15.8965116 C8.57379622,16.4258053 9.44085494,16.4258053 9.98581395,15.8965116 L16.3130233,9.78488372 L16.3297674,9.76813953 C18.4947041,7.51913537 18.4947041,3.96109719 16.3297674,1.71209302 C15.3975174,0.758635798 14.1197584,0.222022291 12.7862791,0.223953488 Z M15.1346512,8.58139535 L9,14.5109302 L3.2944186,9 L4.83906977,9 C5.16310099,9.00031898 5.45822093,8.81362709 5.59674419,8.52069767 L6.06976744,7.4972093 L7.81325581,11.1390698 C7.95398498,11.4346351 8.25407183,11.6210651 8.58139535,11.6162791 C8.90583675,11.6134582 9.19943658,11.4234338 9.33488372,11.1286047 L10.9130233,7.70023256 L11.8046512,8.55837209 C12.1381412,8.88203664 12.6708703,8.87407148 12.9945349,8.5405814 C13.3181994,8.20709131 13.3102343,7.67436223 12.9767442,7.35069767 L11.2374419,5.67627907 C11.0421311,5.48808301 10.7677526,5.40616363 10.5012326,5.45647396 C10.2347126,5.50678429 10.0090785,5.68308981 9.89581395,5.92953488 L8.56255814,8.80744186 L6.82744186,5.18651163 C6.68831463,4.89439785 6.39332015,4.70860022 6.06976744,4.70930233 C5.74677081,4.71098183 5.45355013,4.89831727 5.31627907,5.19069767 L4.30953488,7.3255814 L2.04069767,7.3255814 C1.40734161,5.80877694 1.7364063,4.06062075 2.87790698,2.87790698 C3.60190939,2.12940604 4.59933888,1.70776539 5.64069767,1.71 C6.39837209,1.71 7.34860465,2.24372093 8.38674419,3.25465116 C8.73185593,3.58960809 9.28070221,3.58960809 9.62581395,3.25465116 C10.4541924,2.416992 11.5750492,1.93308796 12.7527907,1.90465116 L12.7674419,1.90465116 C13.6514936,1.89815455 14.5001019,2.25180431 15.117907,2.88418605 C16.6434953,4.48172628 16.6434953,6.99641325 15.117907,8.59395349 L15.1346512,8.58139535 Z"
    id="Shape"></path>
</svg>
