<svg width="18px" height="17px" viewBox="0 0 18 17" version="1.1" xmlns="http://www.w3.org/2000/svg">
  <path
    d="M4.32,10.23 C6.15,10.23 7.65,8.73 7.65,6.9 C7.65,5.07 6.15,3.57 4.32,3.57 C2.49,3.57 0.99,5.07 0.99,6.9 C0.99,8.76 2.49,10.23 4.32,10.23 Z M4.32,4.8 C5.49,4.8 6.45,5.76 6.45,6.93 C6.45,8.1 5.49,9.06 4.32,9.06 C3.15,9.06 2.19,8.1 2.19,6.93 C2.19,5.76 3.15,4.8 4.32,4.8 Z M6.39,11.07 L2.22,11.07 C0.99,11.07 0,12.06 0,13.29 L0,16.05 C0,16.38 0.27,16.65 0.6,16.65 L8.01,16.65 C8.34,16.65 8.61,16.38 8.61,16.05 L8.61,13.29 C8.61,12.06 7.62,11.07 6.39,11.07 Z M7.41,15.45 L1.2,15.45 L1.2,13.29 C1.2,12.72 1.65,12.27 2.22,12.27 L6.36,12.27 C6.93,12.27 7.38,12.72 7.38,13.29 L7.38,15.45 L7.41,15.45 Z M13.08,0.15 C10.38,0.15 8.16,2.37 8.16,5.07 C8.16,6 8.43,6.9 8.94,7.71 L8.01,9.36 C7.89,9.57 7.92,9.87 8.07,10.05 C8.19,10.2 8.34,10.26 8.52,10.26 C8.58,10.26 8.67,10.26 8.73,10.23 L10.77,9.45 C11.49,9.84 12.27,10.02 13.08,10.02 C15.78,10.02 18,7.8 18,5.1 C18,2.4 15.78,0.15 13.08,0.15 Z M13.08,8.79 C12.39,8.79 11.73,8.61 11.13,8.22 C11.04,8.16 10.92,8.13 10.8,8.13 C10.74,8.13 10.65,8.13 10.59,8.16 L9.87,8.43 L10.14,7.92 C10.26,7.71 10.23,7.44 10.11,7.26 C9.63,6.6 9.36,5.82 9.36,5.01 C9.36,2.97 11.04,1.29 13.08,1.29 C15.12,1.29 16.8,3 16.8,5.07 C16.8,7.14 15.12,8.79 13.08,8.79 Z"
    id="Shape"></path>
</svg>
