<svg width="41px" height="24px" viewBox="0 0 41 24" version="1.1" xmlns="http://www.w3.org/2000/svg">
  <path
    d="M23.8363435,24 C23.8363435,24 22.6166914,24 21.2846954,24 C19.2374289,23.9999376 17.3823379,22.8071728 16.5515731,20.9565177 C15.9018312,19.5091841 15.1469916,17.8277221 14.5884858,16.5836073 C14.0700533,15.428794 14.0655167,14.1117672 14.5760732,12.9534641 C15.2873111,11.339617 16.3711172,8.88055214 17.4040757,6.53702463 C19.1538799,2.56687491 23.1164104,0 27.4953629,0 C33.4746009,0 41,0 41,0 C41,0 39.8009516,3.29424961 38.540596,6.75681992 C36.8202798,11.4830729 32.287272,14.6341159 27.208423,14.6341159 C23.3963564,14.6341159 19.3646427,14.6341159 17.6218956,14.6341159 C17.1315647,14.6341159 16.7341083,15.0272796 16.7341083,15.5121754 C16.7341083,15.9971333 17.1315647,16.3902348 17.6218956,16.3902348 C17.7799834,16.3902348 17.950736,16.3902348 18.1267182,16.3902348 C19.442584,16.3902348 20.638356,17.1469612 21.1897418,18.3285712 C22.2418549,20.583171 23.8363435,24 23.8363435,24 Z M8.81928582,19.5982533 C8.81928582,19.5982533 9.4459479,19.5982533 10.1303837,19.5982533 C11.1823215,19.5982533 12.1355254,18.9836022 12.5624445,18.0300279 C12.8962555,17.2842212 13.2841741,16.4177913 13.5711466,15.7767461 C13.8375128,15.1816556 13.8398515,14.502994 13.5775309,13.906148 C13.2120517,13.074576 12.6551101,11.8074694 12.1244005,10.5998594 C11.2252409,8.55409443 9.18918965,7.23144105 6.93910996,7.23144105 C3.86679704,7.23144105 0,7.23144105 0,7.23144105 C0,7.23144105 0.616106038,8.92887861 1.26375377,10.7131472 C2.14767979,13.1484921 4.47689815,14.7722016 7.08657846,14.7722016 C9.04532411,14.7722016 11.1169625,14.7722016 12.0124559,14.7722016 C12.2644102,14.7722016 12.4686412,14.9747656 12.4686412,15.2246009 C12.4686412,15.4744988 12.2644102,15.6770627 12.0124559,15.6770627 C11.9312313,15.6770627 11.843496,15.6770627 11.7530428,15.6770627 C11.0769507,15.6770627 10.4624881,16.0670189 10.1791817,16.6759022 C9.6385482,17.8376203 8.81928582,19.5982533 8.81928582,19.5982533 Z"
    id="Shape"></path>
</svg>
