<svg width="18px" height="15px" viewBox="0 0 18 15" version="1.1" xmlns="http://www.w3.org/2000/svg">
  <path
    d="M6.71895652,5.63426087 L4.28243478,5.63426087 L4.28243478,7.38547826 L2.53017391,7.38547826 L2.53017391,9.82252174 L4.28243478,9.82252174 L4.28243478,11.5747826 L6.71895652,11.5747826 L6.71895652,9.82252174 L8.47121739,9.82252174 L8.47121739,7.38547826 L6.71895652,7.38547826 L6.71895652,5.63426087 Z M7.584,8.27243478 L7.584,8.93530435 L5.83173913,8.93530435 L5.83173913,10.6875652 L5.1693913,10.6875652 L5.1693913,8.93530435 L3.4173913,8.93530435 L3.4173913,8.27243478 L5.16965217,8.27243478 L5.16965217,6.52121739 L5.832,6.52121739 L5.832,8.27243478 L7.584,8.27243478 Z"
    id="Shape"></path>
  <rect id="Rectangle-path" x="10.281913" y="6.51573913" width="5.32173913" height="1"></rect>
  <rect id="Rectangle-path" x="10.281913" y="8.37991304" width="5.32173913" height="1"></rect>
  <rect id="Rectangle-path" x="10.281913" y="10.2438261" width="3.252" height="1"></rect>
  <path
    d="M10.644,0.204782609 L7.53965217,0.204782609 L7.53965217,2.1266087 L0.228782609,2.1266087 L0.228782609,14.1944348 L16.3922609,14.1944348 C17.253913,14.1944348 17.9548696,13.4929565 17.9548696,12.6307826 L17.9548696,2.1266087 L10.644,2.1266087 L10.644,0.204782609 Z M8.4266087,1.092 L9.75704348,1.092 L9.75704348,3.82695652 L8.4266087,3.82695652 L8.4266087,1.092 Z M17.067913,3.01382609 L17.067913,12.6307826 C17.067913,13.0043478 16.7650435,13.3074783 16.3922609,13.3074783 L1.11573913,13.3074783 L1.11573913,3.01382609 L7.5393913,3.01382609 L7.5393913,3.82695652 L6.98530435,3.82695652 L6.98530435,4.71391304 L7.5393913,4.71391304 L10.6437391,4.71391304 L11.198087,4.71391304 L11.198087,3.82695652 L10.6437391,3.82695652 L10.6437391,3.01382609 L17.067913,3.01382609 Z"
    id="Shape"></path>
</svg>
