<svg width="18px" height="18px" viewBox="0 0 18 18" version="1.1" xmlns="http://www.w3.org/2000/svg">
  <path
    d="M10.410459,11.2687235 C11.141403,10.1120973 11.0547213,8.65707627 10.2489548,7.88082409 L10.1848072,7.819026 L10.1277464,7.75063064 C9.43347791,6.91844782 8.19948491,6.85653955 7.191498,7.65602673 L6.11287773,8.511537 L5.08544645,7.59518318 C4.27589209,6.87315136 3.12383509,6.94308027 2.37921518,7.78583809 L2.35119518,7.81755109 L2.32157345,7.84777336 C1.48565345,8.70064036 1.40690182,10.1241862 2.12671336,11.0778169 L6.32707636,15.6039734 L10.410459,11.2687235 Z M11.6987059,12.2876212 L6.31820209,18 L0.878228455,12.1380851 C-0.378091636,10.5534415 -0.286522091,8.17100045 1.15293709,6.70235864 C2.50833818,5.16832091 4.70010627,5.05885827 6.17463191,6.37397018 C7.81063036,5.07637418 10.0662259,5.12250845 11.3842544,6.70235864 C12.8508406,8.11522527 12.8971571,10.5306586 11.6987059,12.2876212 Z M17.5214029,3.86217327 L14.4802486,7.09090909 L11.405481,3.77765291 C10.695387,2.88198464 10.7471438,1.53538773 11.5607509,0.705285545 C12.3268473,-0.161779091 13.5656727,-0.223649455 14.3991003,0.519674727 C15.3237949,-0.213748909 16.598697,-0.187673182 17.3436693,0.705285545 C18.1726094,1.50386264 18.1987885,2.86910755 17.5214029,3.86217327 Z"
    id="Shape"></path>
</svg>
