<svg width="18px" height="18px" viewBox="0 0 18 18" version="1.1" xmlns="http://www.w3.org/2000/svg">
  <path
    d="M17.9775281,1.50561798 C17.9775281,0.674157303 17.3033708,0 16.4719101,0 L1.50561798,0 C0.674157303,0 0,0.674157303 0,1.50561798 L0,16.494382 C0,17.3258427 0.674157303,18 1.50561798,18 L16.494382,18 C17.3258427,18 18,17.3258427 18,16.494382 L18,1.50561798 L17.9775281,1.50561798 Z M15.7752809,8.2247191 C15.9775281,8.29213483 16.0674157,8.58426966 15.9775281,8.87640449 C15.8876404,9.19101124 15.6629213,9.37078652 15.4606742,9.3258427 C15.258427,9.28089888 15.1685393,8.96629213 15.258427,8.6741573 C15.3483146,8.35955056 15.5730337,8.15730337 15.7752809,8.2247191 Z M15.011236,7.50561798 C15.258427,7.57303371 15.3483146,7.91011236 15.258427,8.26966292 C15.1460674,8.62921348 14.8764045,8.85393258 14.6516854,8.78651685 C14.4044944,8.71910112 14.3146067,8.38202247 14.4044944,8.02247191 C14.494382,7.66292135 14.7640449,7.43820225 15.011236,7.50561798 Z M2.96629213,7.50561798 C3.21348315,7.43820225 3.48314607,7.66292135 3.57303371,8.02247191 C3.68539326,8.38202247 3.57303371,8.71910112 3.3258427,8.78651685 C3.07865169,8.85393258 2.80898876,8.62921348 2.71910112,8.26966292 C2.62921348,7.91011236 2.74157303,7.57303371 2.96629213,7.50561798 Z M2.20224719,8.2247191 C2.40449438,8.15730337 2.65168539,8.35955056 2.71910112,8.6741573 C2.80898876,8.98876404 2.71910112,9.28089888 2.51685393,9.3258427 C2.31460674,9.39325843 2.06741573,9.19101124 2,8.87640449 C1.88764045,8.58426966 2,8.29213483 2.20224719,8.2247191 Z M1.91011236,10.2247191 C1.70786517,10.2921348 1.48314607,10.0898876 1.39325843,9.7752809 C1.30337079,9.48314607 1.39325843,9.19101124 1.59550562,9.12359551 C1.79775281,9.05617978 2.02247191,9.25842697 2.11235955,9.57303371 C2.20224719,9.86516854 2.11235955,10.1573034 1.91011236,10.2247191 Z M5.88764045,17.258427 C5.43820225,17.2808989 4.92134831,17.0786517 4.51685393,16.6292135 C4.24719101,16.3370787 4.04494382,15.9775281 3.82022472,15.6404494 C3.3258427,14.8539326 2.94382022,14.0224719 2.62921348,13.1460674 C2.29213483,12.2696629 1.93258427,11.3258427 2.17977528,10.494382 C2.26966292,10.2022472 2.4494382,9.91011236 2.74157303,9.64044944 C3.03370787,9.37078652 3.37078652,9.1011236 3.73033708,8.92134831 C4.49438202,8.51685393 5.5505618,8.40449438 6.24719101,9.01123596 C6.8988764,9.59550562 6.87640449,10.4494382 6.62921348,11.2134831 C6.42696629,11.8202247 6.02247191,12.494382 6.15730337,13.1460674 C6.20224719,13.3483146 6.29213483,13.5280899 6.42696629,13.6853933 C6.74157303,14.0449438 7.03370787,14.494382 7.19101124,14.9438202 C7.57303371,15.8876404 6.96629213,17.2134831 5.88764045,17.258427 Z M3.97752809,6.94382022 C4.24719101,6.87640449 4.56179775,7.12359551 4.6741573,7.52808989 C4.78651685,7.93258427 4.6741573,8.31460674 4.40449438,8.38202247 C4.13483146,8.4494382 3.82022472,8.20224719 3.70786517,7.79775281 C3.59550562,7.41573034 3.73033708,7.01123596 3.97752809,6.94382022 Z M5.30337079,6.31460674 C5.68539326,6.20224719 6.13483146,6.58426966 6.29213483,7.16853933 C6.4494382,7.75280899 6.26966292,8.31460674 5.88764045,8.40449438 C5.50561798,8.51685393 5.05617978,8.13483146 4.8988764,7.5505618 C4.74157303,6.98876404 4.92134831,6.42696629 5.30337079,6.31460674 Z M8.96629213,1.82022472 L8.51685393,5.39325843 C7.86516854,5.48314607 7.21348315,5.7752809 6.69662921,6.29213483 C5.64044944,5.23595506 4.58426966,4.17977528 3.52808989,3.12359551 C6.51685393,0.134831461 11.3932584,0.134831461 14.3820225,3.12359551 C13.3258427,4.17977528 12.2696629,5.23595506 11.2134831,6.29213483 C10.7191011,5.79775281 10.0898876,5.48314607 9.41573034,5.39325843 L8.96629213,1.82022472 Z M14.2696629,7.79775281 C14.1573034,8.20224719 13.8426966,8.47191011 13.5730337,8.38202247 C13.3033708,8.31460674 13.1910112,7.91011236 13.3033708,7.52808989 C13.4157303,7.12359551 13.7303371,6.85393258 14,6.94382022 C14.247191,7.01123596 14.3820225,7.41573034 14.2696629,7.79775281 Z M13.0786517,7.57303371 C12.9213483,8.15730337 12.4719101,8.53932584 12.0898876,8.42696629 C11.7078652,8.31460674 11.5280899,7.75280899 11.6853933,7.19101124 C11.8426966,6.60674157 12.2921348,6.2247191 12.6741573,6.33707865 C13.0561798,6.42696629 13.2359551,6.98876404 13.0786517,7.57303371 Z M15.3483146,13.1460674 C15.0337079,14 14.6516854,14.8539326 14.1573034,15.6404494 C13.9550562,15.9775281 13.7303371,16.3370787 13.4606742,16.6292135 C13.0561798,17.0786517 12.5393258,17.2808989 12.0898876,17.258427 C11.011236,17.2134831 10.4044944,15.8876404 10.7640449,14.9438202 C10.9438202,14.494382 11.2359551,14.0449438 11.5280899,13.6853933 C11.6629213,13.5280899 11.752809,13.3483146 11.7977528,13.1460674 C11.9325843,12.494382 11.5280899,11.8202247 11.3258427,11.2134831 C11.0786517,10.4494382 11.0561798,9.57303371 11.7078652,9.01123596 C12.4044944,8.40449438 13.4606742,8.49438202 14.2247191,8.92134831 C14.5842697,9.12359551 14.9213483,9.37078652 15.2134831,9.64044944 C15.505618,9.91011236 15.6853933,10.2022472 15.7752809,10.494382 C16.0449438,11.3483146 15.6629213,12.2696629 15.3483146,13.1460674 Z M16.5842697,9.7752809 C16.494382,10.0674157 16.2696629,10.2696629 16.0674157,10.2247191 C15.8651685,10.1573034 15.7752809,9.88764045 15.8651685,9.57303371 C15.9550562,9.25842697 16.1797753,9.07865169 16.3820225,9.12359551 C16.5842697,9.16853933 16.6741573,9.48314607 16.5842697,9.7752809 Z"
    id="Shape"></path>
</svg>
